<svg xmlns="http://www.w3.org/2000/svg" version="1.1" xmlns:xlink="http://www.w3.org/1999/xlink" xmlns:svgjs="http://svgjs.com/svgjs" width="2560" height="250" preserveAspectRatio="none" viewBox="0 0 2560 250"><g mask="url(&quot;#SvgjsMask1408&quot;)" fill="none"><rect width="2560" height="250" x="0" y="0" fill="rgba(43, 94, 177, 1)"></rect><path d="M71 250L321 0L931.5 0L681.5 250z" fill="url(#SvgjsLinearGradient1409)"></path><path d="M460.40000000000003 250L710.4000000000001 0L939.9000000000001 0L689.9000000000001 250z" fill="url(#SvgjsLinearGradient1409)"></path><path d="M890.8000000000001 250L1140.8000000000002 0L1464.8000000000002 0L1214.8000000000002 250z" fill="url(#SvgjsLinearGradient1409)"></path><path d="M1282.2 250L1532.2 0L1779.7 0L1529.7 250z" fill="url(#SvgjsLinearGradient1409)"></path><path d="M2531 250L2281 0L1745.5 0L1995.5 250z" fill="url(#SvgjsLinearGradient1410)"></path><path d="M2103.6 250L1853.6 0L1589.6 0L1839.6 250z" fill="url(#SvgjsLinearGradient1410)"></path><path d="M1676.1999999999998 250L1426.1999999999998 0L1054.1999999999998 0L1304.1999999999998 250z" fill="url(#SvgjsLinearGradient1410)"></path><path d="M1230.8 250L980.8 0L506.79999999999995 0L756.8 250z" fill="url(#SvgjsLinearGradient1410)"></path><path d="M2412.153743956315 250L2560 102.15374395631483L2560 250z" fill="url(#SvgjsLinearGradient1409)"></path><path d="M0 250L147.84625604368517 250L 0 102.15374395631483z" fill="url(#SvgjsLinearGradient1410)"></path></g><defs><mask id="SvgjsMask1408"><rect width="2560" height="250" fill="#ffffff"></rect></mask><linearGradient x1="0%" y1="100%" x2="100%" y2="0%" id="SvgjsLinearGradient1409"><stop stop-color="rgba(15, 44, 93, 1)" offset="0"></stop><stop stop-opacity="0" stop-color="rgba(15, 44, 93, 1)" offset="0.66"></stop></linearGradient><linearGradient x1="100%" y1="100%" x2="0%" y2="0%" id="SvgjsLinearGradient1410"><stop stop-color="rgba(15, 44, 93, 1)" offset="0"></stop><stop stop-opacity="0" stop-color="rgba(15, 44, 93, 1)" offset="0.66"></stop></linearGradient></defs></svg>